<!-- Generated by IcoMoon.io -->
<svg version="1.1" xmlns="http://www.w3.org/2000/svg" viewBox="0 0 384 448">
<title></title>
<g id="icomoon-ignore">
</g>
<path fill="#FA6120" d="M376 368c0 8.75-7.25 16-16 16h-115.5c0.75 16 2.75 32.75 2.75 49 0 8.25-6.75 15-15.25 15h-80c-8.5 0-15.25-6.75-15.25-15 0-16.25 2-33 2.75-49h-115.5c-8.75 0-16-7.25-16-16 0-4.25 1.75-8.25 4.75-11.25l100.5-100.75h-57.25c-8.75 0-16-7.25-16-16 0-4.25 1.75-8.25 4.75-11.25l100.5-100.75h-49.25c-8.75 0-16-7.25-16-16 0-4.25 1.75-8.25 4.75-11.25l96-96c3-3 7-4.75 11.25-4.75s8.25 1.75 11.25 4.75l96 96c3 3 4.75 7 4.75 11.25 0 8.75-7.25 16-16 16h-49.25l100.5 100.75c3 3 4.75 7 4.75 11.25 0 8.75-7.25 16-16 16h-57.25l100.5 100.75c3 3 4.75 7 4.75 11.25z"></path>
</svg>
